<svg xmlns="http://www.w3.org/2000/svg" width="1200" height="630" viewBox="0 0 1200 630">
  <defs>
    <linearGradient id="bg" x1="0%" y1="0%" x2="100%" y2="100%">
      <stop offset="0%" stop-color="#08111f"/>
      <stop offset="100%" stop-color="#0e1e36"/>
    </linearGradient>
    <linearGradient id="ac" x1="0%" y1="0%" x2="100%" y2="0%">
      <stop offset="0%" stop-color="#0ea5e9"/>
      <stop offset="100%" stop-color="#38bdf8"/>
    </linearGradient>
    <linearGradient id="tg" x1="0%" y1="0%" x2="100%" y2="0%">
      <stop offset="0%" stop-color="#ffffff"/>
      <stop offset="100%" stop-color="#38bdf8"/>
    </linearGradient>
    <filter id="glow">
      <feGaussianBlur stdDeviation="18" result="b"/>
      <feMerge><feMergeNode in="b"/><feMergeNode in="SourceGraphic"/></feMerge>
    </filter>
  </defs>

  <rect width="1200" height="630" fill="url(#bg)"/>
  <circle cx="0" cy="0" r="1.2" fill="#0ea5e9" fill-opacity="0.07"/><circle cx="0" cy="60" r="1.2" fill="#0ea5e9" fill-opacity="0.07"/><circle cx="0" cy="120" r="1.2" fill="#0ea5e9" fill-opacity="0.07"/><circle cx="0" cy="180" r="1.2" fill="#0ea5e9" fill-opacity="0.07"/><circle cx="0" cy="240" r="1.2" fill="#0ea5e9" fill-opacity="0.07"/><circle cx="0" cy="300" r="1.2" fill="#0ea5e9" fill-opacity="0.07"/><circle cx="0" cy="360" r="1.2" fill="#0ea5e9" fill-opacity="0.07"/><circle cx="0" cy="420" r="1.2" fill="#0ea5e9" fill-opacity="0.07"/><circle cx="0" cy="480" r="1.2" fill="#0ea5e9" fill-opacity="0.07"/><circle cx="0" cy="540" r="1.2" fill="#0ea5e9" fill-opacity="0.07"/><circle cx="0" cy="600" r="1.2" fill="#0ea5e9" fill-opacity="0.07"/><circle cx="60" cy="0" r="1.2" fill="#0ea5e9" fill-opacity="0.07"/><circle cx="60" cy="60" r="1.2" fill="#0ea5e9" fill-opacity="0.07"/><circle cx="60" cy="120" r="1.2" fill="#0ea5e9" fill-opacity="0.07"/><circle cx="60" cy="180" r="1.2" fill="#0ea5e9" fill-opacity="0.07"/><circle cx="60" cy="240" r="1.2" fill="#0ea5e9" fill-opacity="0.07"/><circle cx="60" cy="300" r="1.2" fill="#0ea5e9" fill-opacity="0.07"/><circle cx="60" cy="360" r="1.2" fill="#0ea5e9" fill-opacity="0.07"/><circle cx="60" cy="420" r="1.2" fill="#0ea5e9" fill-opacity="0.07"/><circle cx="60" cy="480" r="1.2" fill="#0ea5e9" fill-opacity="0.07"/><circle cx="60" cy="540" r="1.2" fill="#0ea5e9" fill-opacity="0.07"/><circle cx="60" cy="600" r="1.2" fill="#0ea5e9" fill-opacity="0.07"/><circle cx="120" cy="0" r="1.2" fill="#0ea5e9" fill-opacity="0.07"/><circle cx="120" cy="60" r="1.2" fill="#0ea5e9" fill-opacity="0.07"/><circle cx="120" cy="120" r="1.2" fill="#0ea5e9" fill-opacity="0.07"/><circle cx="120" cy="180" r="1.2" fill="#0ea5e9" fill-opacity="0.07"/><circle cx="120" cy="240" r="1.2" fill="#0ea5e9" fill-opacity="0.07"/><circle cx="120" cy="300" r="1.2" fill="#0ea5e9" fill-opacity="0.07"/><circle cx="120" cy="360" r="1.2" fill="#0ea5e9" fill-opacity="0.07"/><circle cx="120" cy="420" r="1.2" fill="#0ea5e9" fill-opacity="0.07"/><circle cx="120" cy="480" r="1.2" fill="#0ea5e9" fill-opacity="0.07"/><circle cx="120" cy="540" r="1.2" fill="#0ea5e9" fill-opacity="0.07"/><circle cx="120" cy="600" r="1.2" fill="#0ea5e9" fill-opacity="0.07"/><circle cx="180" cy="0" r="1.2" fill="#0ea5e9" fill-opacity="0.07"/><circle cx="180" cy="60" r="1.2" fill="#0ea5e9" fill-opacity="0.07"/><circle cx="180" cy="120" r="1.2" fill="#0ea5e9" fill-opacity="0.07"/><circle cx="180" cy="180" r="1.2" fill="#0ea5e9" fill-opacity="0.07"/><circle cx="180" cy="240" r="1.2" fill="#0ea5e9" fill-opacity="0.07"/><circle cx="180" cy="300" r="1.2" fill="#0ea5e9" fill-opacity="0.07"/><circle cx="180" cy="360" r="1.2" fill="#0ea5e9" fill-opacity="0.07"/><circle cx="180" cy="420" r="1.2" fill="#0ea5e9" fill-opacity="0.07"/><circle cx="180" cy="480" r="1.2" fill="#0ea5e9" fill-opacity="0.07"/><circle cx="180" cy="540" r="1.2" fill="#0ea5e9" fill-opacity="0.07"/><circle cx="180" cy="600" r="1.2" fill="#0ea5e9" fill-opacity="0.07"/><circle cx="240" cy="0" r="1.2" fill="#0ea5e9" fill-opacity="0.07"/><circle cx="240" cy="60" r="1.2" fill="#0ea5e9" fill-opacity="0.07"/><circle cx="240" cy="120" r="1.2" fill="#0ea5e9" fill-opacity="0.07"/><circle cx="240" cy="180" r="1.2" fill="#0ea5e9" fill-opacity="0.07"/><circle cx="240" cy="240" r="1.2" fill="#0ea5e9" fill-opacity="0.07"/><circle cx="240" cy="300" r="1.2" fill="#0ea5e9" fill-opacity="0.07"/><circle cx="240" cy="360" r="1.2" fill="#0ea5e9" fill-opacity="0.07"/><circle cx="240" cy="420" r="1.2" fill="#0ea5e9" fill-opacity="0.07"/><circle cx="240" cy="480" r="1.2" fill="#0ea5e9" fill-opacity="0.07"/><circle cx="240" cy="540" r="1.2" fill="#0ea5e9" fill-opacity="0.07"/><circle cx="240" cy="600" r="1.2" fill="#0ea5e9" fill-opacity="0.07"/><circle cx="300" cy="0" r="1.2" fill="#0ea5e9" fill-opacity="0.07"/><circle cx="300" cy="60" r="1.2" fill="#0ea5e9" fill-opacity="0.07"/><circle cx="300" cy="120" r="1.2" fill="#0ea5e9" fill-opacity="0.07"/><circle cx="300" cy="180" r="1.2" fill="#0ea5e9" fill-opacity="0.07"/><circle cx="300" cy="240" r="1.2" fill="#0ea5e9" fill-opacity="0.07"/><circle cx="300" cy="300" r="1.2" fill="#0ea5e9" fill-opacity="0.07"/><circle cx="300" cy="360" r="1.2" fill="#0ea5e9" fill-opacity="0.07"/><circle cx="300" cy="420" r="1.2" fill="#0ea5e9" fill-opacity="0.07"/><circle cx="300" cy="480" r="1.2" fill="#0ea5e9" fill-opacity="0.07"/><circle cx="300" cy="540" r="1.2" fill="#0ea5e9" fill-opacity="0.07"/><circle cx="300" cy="600" r="1.2" fill="#0ea5e9" fill-opacity="0.07"/><circle cx="360" cy="0" r="1.2" fill="#0ea5e9" fill-opacity="0.07"/><circle cx="360" cy="60" r="1.2" fill="#0ea5e9" fill-opacity="0.07"/><circle cx="360" cy="120" r="1.2" fill="#0ea5e9" fill-opacity="0.07"/><circle cx="360" cy="180" r="1.2" fill="#0ea5e9" fill-opacity="0.07"/><circle cx="360" cy="240" r="1.2" fill="#0ea5e9" fill-opacity="0.07"/><circle cx="360" cy="300" r="1.2" fill="#0ea5e9" fill-opacity="0.07"/><circle cx="360" cy="360" r="1.2" fill="#0ea5e9" fill-opacity="0.07"/><circle cx="360" cy="420" r="1.2" fill="#0ea5e9" fill-opacity="0.07"/><circle cx="360" cy="480" r="1.2" fill="#0ea5e9" fill-opacity="0.07"/><circle cx="360" cy="540" r="1.2" fill="#0ea5e9" fill-opacity="0.07"/><circle cx="360" cy="600" r="1.2" fill="#0ea5e9" fill-opacity="0.07"/><circle cx="420" cy="0" r="1.2" fill="#0ea5e9" fill-opacity="0.07"/><circle cx="420" cy="60" r="1.2" fill="#0ea5e9" fill-opacity="0.07"/><circle cx="420" cy="120" r="1.2" fill="#0ea5e9" fill-opacity="0.07"/><circle cx="420" cy="180" r="1.2" fill="#0ea5e9" fill-opacity="0.07"/><circle cx="420" cy="240" r="1.2" fill="#0ea5e9" fill-opacity="0.07"/><circle cx="420" cy="300" r="1.2" fill="#0ea5e9" fill-opacity="0.07"/><circle cx="420" cy="360" r="1.2" fill="#0ea5e9" fill-opacity="0.07"/><circle cx="420" cy="420" r="1.2" fill="#0ea5e9" fill-opacity="0.07"/><circle cx="420" cy="480" r="1.2" fill="#0ea5e9" fill-opacity="0.07"/><circle cx="420" cy="540" r="1.2" fill="#0ea5e9" fill-opacity="0.07"/><circle cx="420" cy="600" r="1.2" fill="#0ea5e9" fill-opacity="0.07"/><circle cx="480" cy="0" r="1.2" fill="#0ea5e9" fill-opacity="0.07"/><circle cx="480" cy="60" r="1.2" fill="#0ea5e9" fill-opacity="0.07"/><circle cx="480" cy="120" r="1.2" fill="#0ea5e9" fill-opacity="0.07"/><circle cx="480" cy="180" r="1.2" fill="#0ea5e9" fill-opacity="0.07"/><circle cx="480" cy="240" r="1.2" fill="#0ea5e9" fill-opacity="0.07"/><circle cx="480" cy="300" r="1.2" fill="#0ea5e9" fill-opacity="0.07"/><circle cx="480" cy="360" r="1.2" fill="#0ea5e9" fill-opacity="0.07"/><circle cx="480" cy="420" r="1.2" fill="#0ea5e9" fill-opacity="0.07"/><circle cx="480" cy="480" r="1.2" fill="#0ea5e9" fill-opacity="0.07"/><circle cx="480" cy="540" r="1.2" fill="#0ea5e9" fill-opacity="0.07"/><circle cx="480" cy="600" r="1.2" fill="#0ea5e9" fill-opacity="0.07"/><circle cx="540" cy="0" r="1.2" fill="#0ea5e9" fill-opacity="0.07"/><circle cx="540" cy="60" r="1.2" fill="#0ea5e9" fill-opacity="0.07"/><circle cx="540" cy="120" r="1.2" fill="#0ea5e9" fill-opacity="0.07"/><circle cx="540" cy="180" r="1.2" fill="#0ea5e9" fill-opacity="0.07"/><circle cx="540" cy="240" r="1.2" fill="#0ea5e9" fill-opacity="0.07"/><circle cx="540" cy="300" r="1.2" fill="#0ea5e9" fill-opacity="0.07"/><circle cx="540" cy="360" r="1.2" fill="#0ea5e9" fill-opacity="0.07"/><circle cx="540" cy="420" r="1.2" fill="#0ea5e9" fill-opacity="0.07"/><circle cx="540" cy="480" r="1.2" fill="#0ea5e9" fill-opacity="0.07"/><circle cx="540" cy="540" r="1.2" fill="#0ea5e9" fill-opacity="0.07"/><circle cx="540" cy="600" r="1.2" fill="#0ea5e9" fill-opacity="0.07"/><circle cx="600" cy="0" r="1.2" fill="#0ea5e9" fill-opacity="0.07"/><circle cx="600" cy="60" r="1.2" fill="#0ea5e9" fill-opacity="0.07"/><circle cx="600" cy="120" r="1.2" fill="#0ea5e9" fill-opacity="0.07"/><circle cx="600" cy="180" r="1.2" fill="#0ea5e9" fill-opacity="0.07"/><circle cx="600" cy="240" r="1.2" fill="#0ea5e9" fill-opacity="0.07"/><circle cx="600" cy="300" r="1.2" fill="#0ea5e9" fill-opacity="0.07"/><circle cx="600" cy="360" r="1.2" fill="#0ea5e9" fill-opacity="0.07"/><circle cx="600" cy="420" r="1.2" fill="#0ea5e9" fill-opacity="0.07"/><circle cx="600" cy="480" r="1.2" fill="#0ea5e9" fill-opacity="0.07"/><circle cx="600" cy="540" r="1.2" fill="#0ea5e9" fill-opacity="0.07"/><circle cx="600" cy="600" r="1.2" fill="#0ea5e9" fill-opacity="0.07"/><circle cx="660" cy="0" r="1.2" fill="#0ea5e9" fill-opacity="0.07"/><circle cx="660" cy="60" r="1.2" fill="#0ea5e9" fill-opacity="0.07"/><circle cx="660" cy="120" r="1.2" fill="#0ea5e9" fill-opacity="0.07"/><circle cx="660" cy="180" r="1.2" fill="#0ea5e9" fill-opacity="0.07"/><circle cx="660" cy="240" r="1.2" fill="#0ea5e9" fill-opacity="0.07"/><circle cx="660" cy="300" r="1.2" fill="#0ea5e9" fill-opacity="0.07"/><circle cx="660" cy="360" r="1.2" fill="#0ea5e9" fill-opacity="0.07"/><circle cx="660" cy="420" r="1.2" fill="#0ea5e9" fill-opacity="0.07"/><circle cx="660" cy="480" r="1.2" fill="#0ea5e9" fill-opacity="0.07"/><circle cx="660" cy="540" r="1.2" fill="#0ea5e9" fill-opacity="0.07"/><circle cx="660" cy="600" r="1.2" fill="#0ea5e9" fill-opacity="0.07"/><circle cx="720" cy="0" r="1.2" fill="#0ea5e9" fill-opacity="0.07"/><circle cx="720" cy="60" r="1.2" fill="#0ea5e9" fill-opacity="0.07"/><circle cx="720" cy="120" r="1.2" fill="#0ea5e9" fill-opacity="0.07"/><circle cx="720" cy="180" r="1.2" fill="#0ea5e9" fill-opacity="0.07"/><circle cx="720" cy="240" r="1.2" fill="#0ea5e9" fill-opacity="0.07"/><circle cx="720" cy="300" r="1.2" fill="#0ea5e9" fill-opacity="0.07"/><circle cx="720" cy="360" r="1.2" fill="#0ea5e9" fill-opacity="0.07"/><circle cx="720" cy="420" r="1.2" fill="#0ea5e9" fill-opacity="0.07"/><circle cx="720" cy="480" r="1.2" fill="#0ea5e9" fill-opacity="0.07"/><circle cx="720" cy="540" r="1.2" fill="#0ea5e9" fill-opacity="0.07"/><circle cx="720" cy="600" r="1.2" fill="#0ea5e9" fill-opacity="0.07"/><circle cx="780" cy="0" r="1.2" fill="#0ea5e9" fill-opacity="0.07"/><circle cx="780" cy="60" r="1.2" fill="#0ea5e9" fill-opacity="0.07"/><circle cx="780" cy="120" r="1.2" fill="#0ea5e9" fill-opacity="0.07"/><circle cx="780" cy="180" r="1.2" fill="#0ea5e9" fill-opacity="0.07"/><circle cx="780" cy="240" r="1.2" fill="#0ea5e9" fill-opacity="0.07"/><circle cx="780" cy="300" r="1.2" fill="#0ea5e9" fill-opacity="0.07"/><circle cx="780" cy="360" r="1.2" fill="#0ea5e9" fill-opacity="0.07"/><circle cx="780" cy="420" r="1.2" fill="#0ea5e9" fill-opacity="0.07"/><circle cx="780" cy="480" r="1.2" fill="#0ea5e9" fill-opacity="0.07"/><circle cx="780" cy="540" r="1.2" fill="#0ea5e9" fill-opacity="0.07"/><circle cx="780" cy="600" r="1.2" fill="#0ea5e9" fill-opacity="0.07"/><circle cx="840" cy="0" r="1.2" fill="#0ea5e9" fill-opacity="0.07"/><circle cx="840" cy="60" r="1.2" fill="#0ea5e9" fill-opacity="0.07"/><circle cx="840" cy="120" r="1.2" fill="#0ea5e9" fill-opacity="0.07"/><circle cx="840" cy="180" r="1.2" fill="#0ea5e9" fill-opacity="0.07"/><circle cx="840" cy="240" r="1.2" fill="#0ea5e9" fill-opacity="0.07"/><circle cx="840" cy="300" r="1.2" fill="#0ea5e9" fill-opacity="0.07"/><circle cx="840" cy="360" r="1.2" fill="#0ea5e9" fill-opacity="0.07"/><circle cx="840" cy="420" r="1.2" fill="#0ea5e9" fill-opacity="0.07"/><circle cx="840" cy="480" r="1.2" fill="#0ea5e9" fill-opacity="0.07"/><circle cx="840" cy="540" r="1.2" fill="#0ea5e9" fill-opacity="0.07"/><circle cx="840" cy="600" r="1.2" fill="#0ea5e9" fill-opacity="0.07"/><circle cx="900" cy="0" r="1.2" fill="#0ea5e9" fill-opacity="0.07"/><circle cx="900" cy="60" r="1.2" fill="#0ea5e9" fill-opacity="0.07"/><circle cx="900" cy="120" r="1.2" fill="#0ea5e9" fill-opacity="0.07"/><circle cx="900" cy="180" r="1.2" fill="#0ea5e9" fill-opacity="0.07"/><circle cx="900" cy="240" r="1.2" fill="#0ea5e9" fill-opacity="0.07"/><circle cx="900" cy="300" r="1.2" fill="#0ea5e9" fill-opacity="0.07"/><circle cx="900" cy="360" r="1.2" fill="#0ea5e9" fill-opacity="0.07"/><circle cx="900" cy="420" r="1.2" fill="#0ea5e9" fill-opacity="0.07"/><circle cx="900" cy="480" r="1.2" fill="#0ea5e9" fill-opacity="0.07"/><circle cx="900" cy="540" r="1.2" fill="#0ea5e9" fill-opacity="0.07"/><circle cx="900" cy="600" r="1.2" fill="#0ea5e9" fill-opacity="0.07"/><circle cx="960" cy="0" r="1.2" fill="#0ea5e9" fill-opacity="0.07"/><circle cx="960" cy="60" r="1.2" fill="#0ea5e9" fill-opacity="0.07"/><circle cx="960" cy="120" r="1.2" fill="#0ea5e9" fill-opacity="0.07"/><circle cx="960" cy="180" r="1.2" fill="#0ea5e9" fill-opacity="0.07"/><circle cx="960" cy="240" r="1.2" fill="#0ea5e9" fill-opacity="0.07"/><circle cx="960" cy="300" r="1.2" fill="#0ea5e9" fill-opacity="0.07"/><circle cx="960" cy="360" r="1.2" fill="#0ea5e9" fill-opacity="0.07"/><circle cx="960" cy="420" r="1.2" fill="#0ea5e9" fill-opacity="0.07"/><circle cx="960" cy="480" r="1.2" fill="#0ea5e9" fill-opacity="0.07"/><circle cx="960" cy="540" r="1.2" fill="#0ea5e9" fill-opacity="0.07"/><circle cx="960" cy="600" r="1.2" fill="#0ea5e9" fill-opacity="0.07"/><circle cx="1020" cy="0" r="1.2" fill="#0ea5e9" fill-opacity="0.07"/><circle cx="1020" cy="60" r="1.2" fill="#0ea5e9" fill-opacity="0.07"/><circle cx="1020" cy="120" r="1.2" fill="#0ea5e9" fill-opacity="0.07"/><circle cx="1020" cy="180" r="1.2" fill="#0ea5e9" fill-opacity="0.07"/><circle cx="1020" cy="240" r="1.2" fill="#0ea5e9" fill-opacity="0.07"/><circle cx="1020" cy="300" r="1.2" fill="#0ea5e9" fill-opacity="0.07"/><circle cx="1020" cy="360" r="1.2" fill="#0ea5e9" fill-opacity="0.07"/><circle cx="1020" cy="420" r="1.2" fill="#0ea5e9" fill-opacity="0.07"/><circle cx="1020" cy="480" r="1.2" fill="#0ea5e9" fill-opacity="0.07"/><circle cx="1020" cy="540" r="1.2" fill="#0ea5e9" fill-opacity="0.07"/><circle cx="1020" cy="600" r="1.2" fill="#0ea5e9" fill-opacity="0.07"/><circle cx="1080" cy="0" r="1.2" fill="#0ea5e9" fill-opacity="0.07"/><circle cx="1080" cy="60" r="1.2" fill="#0ea5e9" fill-opacity="0.07"/><circle cx="1080" cy="120" r="1.2" fill="#0ea5e9" fill-opacity="0.07"/><circle cx="1080" cy="180" r="1.2" fill="#0ea5e9" fill-opacity="0.07"/><circle cx="1080" cy="240" r="1.2" fill="#0ea5e9" fill-opacity="0.07"/><circle cx="1080" cy="300" r="1.2" fill="#0ea5e9" fill-opacity="0.07"/><circle cx="1080" cy="360" r="1.2" fill="#0ea5e9" fill-opacity="0.07"/><circle cx="1080" cy="420" r="1.2" fill="#0ea5e9" fill-opacity="0.07"/><circle cx="1080" cy="480" r="1.2" fill="#0ea5e9" fill-opacity="0.07"/><circle cx="1080" cy="540" r="1.2" fill="#0ea5e9" fill-opacity="0.07"/><circle cx="1080" cy="600" r="1.2" fill="#0ea5e9" fill-opacity="0.07"/><circle cx="1140" cy="0" r="1.2" fill="#0ea5e9" fill-opacity="0.07"/><circle cx="1140" cy="60" r="1.2" fill="#0ea5e9" fill-opacity="0.07"/><circle cx="1140" cy="120" r="1.2" fill="#0ea5e9" fill-opacity="0.07"/><circle cx="1140" cy="180" r="1.2" fill="#0ea5e9" fill-opacity="0.07"/><circle cx="1140" cy="240" r="1.2" fill="#0ea5e9" fill-opacity="0.07"/><circle cx="1140" cy="300" r="1.2" fill="#0ea5e9" fill-opacity="0.07"/><circle cx="1140" cy="360" r="1.2" fill="#0ea5e9" fill-opacity="0.07"/><circle cx="1140" cy="420" r="1.2" fill="#0ea5e9" fill-opacity="0.07"/><circle cx="1140" cy="480" r="1.2" fill="#0ea5e9" fill-opacity="0.07"/><circle cx="1140" cy="540" r="1.2" fill="#0ea5e9" fill-opacity="0.07"/><circle cx="1140" cy="600" r="1.2" fill="#0ea5e9" fill-opacity="0.07"/><circle cx="1200" cy="0" r="1.2" fill="#0ea5e9" fill-opacity="0.07"/><circle cx="1200" cy="60" r="1.2" fill="#0ea5e9" fill-opacity="0.07"/><circle cx="1200" cy="120" r="1.2" fill="#0ea5e9" fill-opacity="0.07"/><circle cx="1200" cy="180" r="1.2" fill="#0ea5e9" fill-opacity="0.07"/><circle cx="1200" cy="240" r="1.2" fill="#0ea5e9" fill-opacity="0.07"/><circle cx="1200" cy="300" r="1.2" fill="#0ea5e9" fill-opacity="0.07"/><circle cx="1200" cy="360" r="1.2" fill="#0ea5e9" fill-opacity="0.07"/><circle cx="1200" cy="420" r="1.2" fill="#0ea5e9" fill-opacity="0.07"/><circle cx="1200" cy="480" r="1.2" fill="#0ea5e9" fill-opacity="0.07"/><circle cx="1200" cy="540" r="1.2" fill="#0ea5e9" fill-opacity="0.07"/><circle cx="1200" cy="600" r="1.2" fill="#0ea5e9" fill-opacity="0.07"/>

  <!-- glow blobs -->
  <ellipse cx="960" cy="200" rx="320" ry="220" fill="#0ea5e9" fill-opacity="0.06" filter="url(#glow)"/>
  <ellipse cx="200" cy="500" rx="200" ry="150" fill="#0ea5e9" fill-opacity="0.04" filter="url(#glow)"/>

  <!-- left accent bar -->
  <rect x="80" y="195" width="4" height="250" rx="2" fill="url(#ac)"/>

  <!-- badge top-right -->
  <rect x="1042" y="34" width="118" height="30" rx="5"
        fill="#0ea5e9" fill-opacity="0.12" stroke="#0ea5e9" stroke-opacity="0.35" stroke-width="1"/>
  <text x="1101" y="54" text-anchor="middle"
        font-family="'Helvetica Neue',Arial,sans-serif" font-weight="700" font-size="11"
        letter-spacing="2.5" fill="#0ea5e9" fill-opacity="0.9">ROAD MAP</text>

  <!-- article id -->
  <text x="100" y="192"
        font-family="'Helvetica Neue',Arial,sans-serif" font-weight="900" font-size="12"
        letter-spacing="3" fill="#0ea5e9" fill-opacity="0.55">No.A02</text>

  <!-- category pill -->
  <rect x="100" y="206" width="121" height="28" rx="14"
        fill="#0ea5e9" fill-opacity="0.13" stroke="#0ea5e9" stroke-opacity="0.4" stroke-width="1"/>
  <text x="160" y="225" text-anchor="middle"
        font-family="'Noto Sans JP','Helvetica Neue',Arial,sans-serif"
        font-weight="700" font-size="13" letter-spacing="1" fill="#0ea5e9">ABM戦略</text>

  <!-- title -->
  <text x="100" y="290" font-family="'Noto Sans JP','Helvetica Neue',Arial,sans-serif"
        font-weight="900" font-size="40" letter-spacing="-0.5" fill="#ffffff" fill-opacity="0.96">BtoBで大手企業に</text>
  <text x="100" y="342" font-family="'Noto Sans JP','Helvetica Neue',Arial,sans-serif"
        font-weight="900" font-size="40" letter-spacing="-0.5" fill="#ffffff" fill-opacity="0.96">初めて受注するための</text>
  <text x="100" y="394" font-family="'Noto Sans JP','Helvetica Neue',Arial,sans-serif"
        font-weight="900" font-size="40" letter-spacing="-0.5" fill="url(#tg)" fill-opacity="0.97">完全ロードマップ</text>

  <!-- subtitle -->
  <text x="100" y="440" font-family="'Noto Sans JP','Helvetica Neue',Arial,sans-serif"
        font-weight="400" font-size="15" letter-spacing="0.2" fill="#ffffff" fill-opacity="0.42">ICP設計→組織把握→マルチスレッド→受注まで5ステップで解説</text>

  <!-- bottom rule -->
  <line x1="80" y1="515" x2="500" y2="515" stroke="#0ea5e9" stroke-opacity="0.18" stroke-width="1"/>

  <!-- branding -->
  <text x="100" y="544" font-family="'Helvetica Neue',Arial,sans-serif"
        font-weight="900" font-size="14" letter-spacing="3.5" fill="#ffffff" fill-opacity="0.35">NAKAGAWA</text>
  <text x="240" y="544" font-family="'Helvetica Neue',Arial,sans-serif"
        font-weight="900" font-size="14" letter-spacing="3.5" fill="#0ea5e9" fill-opacity="0.65">KIKAKU</text>
  <text x="100" y="568" font-family="'Helvetica Neue',Arial,sans-serif"
        font-weight="400" font-size="12" letter-spacing="1" fill="#ffffff" fill-opacity="0.22">nakagawakikaku.com</text>

  <!-- right icon + big ID -->
  <text x="1000" y="390" text-anchor="middle" font-size="130" fill-opacity="0.15">🗺️</text>
  <text x="980" y="590" text-anchor="middle"
        font-family="'Helvetica Neue',Arial,sans-serif" font-weight="900" font-size="130"
        letter-spacing="-4" fill="#0ea5e9" fill-opacity="0.05">A02</text>

  <!-- corner dots -->
  <circle cx="1100" cy="55" r="4" fill="#0ea5e9" fill-opacity="0.5"/>
  <circle cx="1122" cy="55" r="4" fill="#0ea5e9" fill-opacity="0.3"/>
  <circle cx="1144" cy="55" r="4" fill="#0ea5e9" fill-opacity="0.15"/>
</svg>